<?xml version="1.0" encoding="utf-8"?>
<!-- Generator: Adobe Illustrator 20.1.0, SVG Export Plug-In . SVG Version: 6.00 Build 0)  -->
<svg version="1.1" id="Layer_1" xmlns="http://www.w3.org/2000/svg" xmlns:xlink="http://www.w3.org/1999/xlink" x="0px" y="0px"
	 viewBox="0 0 94.9 107.4" style="enable-background:new 0 0 94.9 107.4;" xml:space="preserve">
<style type="text/css">
	.st0{fill:#98BF22;}
</style>
<g>
	<path class="st0" d="M23.8,73.8c0,3.3,2.7,6,6,6h3.5v12.1c0,2.9,2.4,5.3,5.3,5.3s5.3-2.4,5.3-5.3V79.8h7.1v12.1
		c0,2.9,2.4,5.3,5.3,5.3c2.9,0,5.3-2.4,5.3-5.3V79.8h3.9c3.3,0,6-2.7,6-6V39.2H23.8V73.8z"/>
	<path class="st0" d="M16.2,38.3c-2.9,0-5.3,2.4-5.3,5.3v22.9c0,2.9,2.4,5.3,5.3,5.3s5.3-2.4,5.3-5.3V43.6
		C21.5,40.7,19.1,38.3,16.2,38.3z"/>
	<path class="st0" d="M78.7,38.3c-2.9,0-5.3,2.4-5.3,5.3v22.9c0,2.9,2.4,5.3,5.3,5.3c2.9,0,5.3-2.4,5.3-5.3V43.6
		C84,40.7,81.6,38.3,78.7,38.3z"/>
	<path class="st0" d="M59.1,18l4.2-6.6c0.2-0.4,0.1-0.8-0.2-1c-0.4-0.2-0.8-0.1-1,0.2l-4.3,6.8c-3.1-1.4-6.5-2.2-10.1-2.2
		c-3.7,0-7.2,0.8-10.3,2.3L33,10.5c-0.2-0.4-0.7-0.5-1-0.2c-0.4,0.2-0.5,0.7-0.2,1l4.3,6.7c-7.3,3.9-12.2,11.4-12.2,20h47.6
		C71.5,29.4,66.5,21.9,59.1,18z M36.7,29.1c-1.2,0-2.2-1-2.2-2.2s1-2.2,2.2-2.2s2.2,1,2.2,2.2S37.9,29.1,36.7,29.1z M58.6,29.1
		c-1.2,0-2.2-1-2.2-2.2s1-2.2,2.2-2.2s2.2,1,2.2,2.2S59.8,29.1,58.6,29.1z"/>
</g>
</svg>
