<?xml version="1.0" encoding="utf-8"?>
<!-- Generator: Adobe Illustrator 16.0.0, SVG Export Plug-In . SVG Version: 6.00 Build 0)  -->
<!DOCTYPE svg PUBLIC "-//W3C//DTD SVG 1.1//EN" "http://www.w3.org/Graphics/SVG/1.1/DTD/svg11.dtd">
<svg version="1.1" id="Layer_1" xmlns="http://www.w3.org/2000/svg" xmlns:xlink="http://www.w3.org/1999/xlink" x="0px" y="0px"
	 width="94.875px" height="107.375px" viewBox="0 0 94.875 107.375" enable-background="new 0 0 94.875 107.375"
	 xml:space="preserve">
<g>
	<path fill="#FFFFFF" d="M23.817,73.803c0,3.313,2.687,6,6,6h3.543v12.059c0,2.941,2.386,5.326,5.328,5.326s5.327-2.385,5.327-5.326
		V79.803h7.094v12.059c0,2.941,2.387,5.326,5.328,5.326c2.942,0,5.328-2.385,5.328-5.326V79.803h3.926c3.313,0,6-2.687,6-6V39.178
		H23.817V73.803z"/>
	<path fill="#FFFFFF" d="M16.188,38.292c-2.942,0-5.328,2.385-5.328,5.327v22.865c0,2.943,2.385,5.328,5.328,5.328
		s5.327-2.385,5.327-5.328V43.62C21.515,40.678,19.13,38.292,16.188,38.292z"/>
	<path fill="#FFFFFF" d="M78.688,38.292c-2.941,0-5.328,2.385-5.328,5.327v22.865c0,2.943,2.387,5.328,5.328,5.328
		c2.942,0,5.328-2.385,5.328-5.328V43.62C84.016,40.678,81.63,38.292,78.688,38.292z"/>
	<path fill="#FFFFFF" d="M59.133,17.986l4.201-6.648c0.223-0.35,0.117-0.813-0.232-1.035c-0.351-0.221-0.813-0.117-1.035,0.233
		l-4.287,6.784c-3.077-1.398-6.516-2.183-10.146-2.183c-3.695,0-7.194,0.811-10.316,2.257l-4.333-6.858
		c-0.221-0.35-0.685-0.455-1.034-0.233c-0.351,0.221-0.455,0.685-0.233,1.035l4.257,6.737c-7.253,3.929-12.156,11.406-12.156,19.989
		h47.635C71.452,29.417,66.477,21.891,59.133,17.986z M36.651,29.095c-1.242,0-2.25-1.007-2.25-2.25c0-1.243,1.008-2.25,2.25-2.25
		c1.242,0,2.25,1.007,2.25,2.25C38.901,28.088,37.893,29.095,36.651,29.095z M58.568,29.095c-1.242,0-2.25-1.007-2.25-2.25
		c0-1.243,1.008-2.25,2.25-2.25s2.25,1.007,2.25,2.25C60.818,28.088,59.811,29.095,58.568,29.095z"/>
</g>
</svg>
