<?xml version="1.0" encoding="utf-8"?>
<!-- Generator: Adobe Illustrator 16.0.0, SVG Export Plug-In . SVG Version: 6.00 Build 0)  -->
<!DOCTYPE svg PUBLIC "-//W3C//DTD SVG 1.1//EN" "http://www.w3.org/Graphics/SVG/1.1/DTD/svg11.dtd">
<svg version="1.1" id="Layer_1" xmlns="http://www.w3.org/2000/svg" xmlns:xlink="http://www.w3.org/1999/xlink" x="0px" y="0px"
	 width="142.333px" height="107.375px" viewBox="0 0 142.333 107.375" enable-background="new 0 0 142.333 107.375"
	 xml:space="preserve">
<path fill-rule="evenodd" clip-rule="evenodd" fill="#FA4F3B" d="M322.907-163.146c-7.801-9.686-15.604-19.369-23.412-29.049
	c-1.058-1.311-2.106-2.63-3.499-3.622c-1.084-0.771-2.274-1.121-3.59-0.911c-3.856,0.616-7.712,1.246-11.565,1.886
	c-5.615,0.932-11.23,1.865-16.842,2.825c-1.963,0.336-3.963,0.51-5.871,1.111c-2.324,0.732-2.746,2.051-1.347,4.034
	c7.326,10.378,14.652,20.755,21.979,31.133c0.419,0.593,0.419,0.598-0.309,0.771c-3.939,0.941-7.879,1.875-11.817,2.818
	c-18.256,4.374-36.513,8.748-54.766,13.132c-0.389,0.093-0.588,0.034-0.796-0.324c-1.025-1.759-2.082-3.499-3.127-5.247
	c-9.281-15.513-18.563-31.025-27.842-46.539c-7.477-12.5-14.95-25.002-22.428-37.502c-0.224-0.375-0.483-0.727-0.708-1.101
	c-1.034-1.716-2.254-3.194-4.405-3.503c-1.29,0-2.58,0-3.871,0c-0.801,0.113-1.609,0.089-2.414,0.118
	c-1.533,0.055-3.067,0.101-4.601,0.169c-2.283,0.103-4.554,0.382-6.834,0.52c-2.861,0.173-5.714,0.465-8.573,0.673
	c-3.812,0.277-7.614,0.661-11.426,0.946c-3.563,0.267-7.12,0.607-10.68,0.908c-1.935,0.164-2.958,1.086-3.298,2.91
	c0,0.583,0,1.166,0,1.748c0.256,1.068,0.522,2.132,0.967,3.144c2.817,6.404,5.771,12.746,8.703,19.098
	c10.23,22.163,20.48,44.317,30.723,66.476c2.378,5.144,4.74,10.294,7.135,15.43c1.304,2.797,3.362,4.716,6.48,5.311
	c2.057,0.393,4.048-0.011,6.035-0.509c15.146-3.793,30.24-7.783,45.347-11.728c0.507-0.132,0.685,0.023,0.905,0.423
	c5.889,10.676,11.801,21.34,17.843,31.931c2.255,3.951,4.455,7.936,6.963,11.736c1.242,1.883,2.715,3.527,5.009,4.163
	c0.874,0,1.748,0,2.622,0c0.957-0.195,1.948-0.16,2.893-0.449c2.985-0.912,5.927-1.954,8.87-2.991
	c7.416-2.614,14.822-5.253,22.224-7.907c5.992-2.148,11.983-4.298,17.974-6.45c7.811-2.807,15.615-5.63,23.409-8.481
	c1.504-0.55,3.018-1.082,4.427-1.857c1.564-0.86,1.949-2.068,1.174-3.661c-0.191-0.394-0.405-0.773-0.665-1.127
	c-2.788-3.81-5.599-7.604-8.415-11.394c-4.716-6.344-9.43-12.688-14.174-19.01c-1.386-1.847-2.74-3.717-4.131-5.56
	c-0.484-0.641-0.432-0.779,0.344-1.016c0.497-0.152,1.008-0.256,1.51-0.392c7.515-2.016,15.037-4,22.552-6.016
	c1.988-0.534,3.997-0.998,5.952-1.648c0.842-0.28,1.469-0.761,1.595-1.709c0-0.25,0-0.5,0-0.749
	C324.579-161.312,323.682-162.184,322.907-163.146z M200.795-136.313c-2.928,0.705-5.858,1.398-8.788,2.097
	c-10.545,2.516-21.09,5.032-31.636,7.545c-0.585,0.14-1.177,0.25-1.765,0.373c-0.388,0.008-0.64-0.131-0.802-0.491
	c-1.957-4.356-4.097-8.626-6.171-12.926c-5.15-10.678-10.324-21.344-15.493-32.013c-3.774-7.791-7.552-15.581-11.335-23.367
	c-4.329-8.908-8.666-17.812-13-26.717c-0.018-0.037-0.042-0.072-0.057-0.11c-0.651-1.742-0.274-1.718,1.065-1.826
	c4.164-0.336,8.326-0.708,12.488-1.072c3.935-0.343,7.869-0.693,11.803-1.038c3.687-0.322,7.374-0.626,11.059-0.971
	c1.125-0.105,1.924-0.058,2.632,1.173c10.617,18.459,21.311,36.874,31.985,55.3c6.134,10.589,12.266,21.179,18.396,31.769
	c0.146,0.251,0.291,0.506,0.396,0.775C201.916-136.935,201.71-136.532,200.795-136.313z M307.533-116.853
	c0.27,0.369,0.528,0.748,0.77,1.136c0.479,0.77,0.393,1.143-0.453,1.509c-0.854,0.371-1.742,0.67-2.626,0.97
	c-14.627,4.958-29.257,9.907-43.883,14.868c-6.35,2.154-12.692,4.331-19.039,6.493c-0.586,0.2-1.134,0.535-1.785,0.521
	c-0.779-0.011-1.312-0.472-1.781-1.016c-1.053-1.22-1.789-2.65-2.602-4.025c-6.595-11.161-13.084-22.384-19.573-33.607
	c-0.356-0.616-0.357-0.619,0.343-0.801c15.574-4.049,31.148-8.096,46.722-12.147c6.209-1.615,12.416-3.238,18.623-4.86
	c0.321-0.084,0.638-0.188,0.955-0.285c1.056-0.32,1.493-0.169,2.135,0.727c1.512,2.114,3.011,4.236,4.542,6.336
	C295.759-132.97,301.649-124.914,307.533-116.853z M314.018-163.849c-0.413,0.291-0.896,0.431-1.382,0.55
	c-8.549,2.107-17.098,4.212-25.646,6.317c-0.101,0.025-0.203,0.042-0.304,0.063c-0.328,0.039-0.407-0.245-0.545-0.433
	c-3.078-4.214-6.152-8.431-9.227-12.648c-3.392-4.654-6.777-9.313-10.178-13.96c-1.016-1.388-0.87-1.708,0.771-1.991
	c8.352-1.443,16.701-2.905,25.02-4.529c1.075-0.21,1.793,0.315,2.401,1.096c0.932,1.197,1.852,2.406,2.79,3.599
	c5.374,6.832,10.753,13.66,16.13,20.49c0.115,0.147,0.226,0.299,0.344,0.443C314.522-164.448,314.395-164.113,314.018-163.849z"/>
<path fill-rule="evenodd" clip-rule="evenodd" fill="#FFFFFF" d="M125.449,49.34c-3.979-4.94-7.959-9.879-11.94-14.815
	c-0.539-0.668-1.074-1.341-1.784-1.847c-0.554-0.393-1.161-0.571-1.831-0.464c-1.967,0.315-3.934,0.636-5.898,0.962
	c-2.864,0.475-5.729,0.951-8.59,1.44c-1.001,0.171-2.021,0.26-2.995,0.567c-1.185,0.374-1.399,1.046-0.687,2.057
	c3.737,5.293,7.473,10.586,11.21,15.878c0.214,0.303,0.214,0.305-0.157,0.394c-2.01,0.48-4.019,0.958-6.027,1.437
	c-9.311,2.23-18.622,4.462-27.931,6.698c-0.198,0.048-0.3,0.017-0.406-0.166c-0.523-0.896-1.062-1.784-1.595-2.676
	c-4.734-7.912-9.467-15.823-14.199-23.735c-3.813-6.375-7.625-12.751-11.438-19.126c-0.115-0.191-0.247-0.371-0.361-0.561
	c-0.527-0.875-1.149-1.629-2.247-1.787c-0.658,0-1.315,0-1.974,0c-0.409,0.058-0.821,0.045-1.231,0.06
	c-0.782,0.029-1.564,0.052-2.347,0.086c-1.164,0.053-2.322,0.195-3.485,0.266c-1.459,0.088-2.914,0.237-4.372,0.343
	c-1.944,0.141-3.883,0.337-5.827,0.482c-1.818,0.136-3.632,0.31-5.447,0.463c-0.986,0.083-1.508,0.554-1.682,1.484
	c0,0.297,0,0.595,0,0.892c0.131,0.545,0.267,1.087,0.493,1.604c1.438,3.266,2.944,6.5,4.439,9.74
	c5.218,11.304,10.445,22.603,15.669,33.903c1.212,2.623,2.418,5.25,3.639,7.87c0.665,1.426,1.715,2.404,3.305,2.708
	c1.049,0.2,2.064-0.006,3.078-0.26c7.724-1.934,15.422-3.969,23.127-5.98c0.258-0.068,0.349,0.012,0.461,0.216
	c3.003,5.444,6.019,10.883,9.101,16.284c1.149,2.016,2.271,4.047,3.551,5.985c0.634,0.961,1.385,1.799,2.555,2.124
	c0.446,0,0.892,0,1.338,0c0.487-0.101,0.993-0.081,1.475-0.229c1.522-0.466,3.022-0.997,4.523-1.526
	c3.782-1.333,7.561-2.679,11.334-4.033c3.057-1.096,6.112-2.191,9.167-3.289c3.983-1.431,7.964-2.871,11.939-4.325
	c0.767-0.28,1.539-0.551,2.258-0.946c0.797-0.439,0.993-1.055,0.598-1.868c-0.097-0.2-0.206-0.394-0.339-0.575
	c-1.421-1.942-2.854-3.877-4.291-5.81c-2.405-3.235-4.81-6.472-7.229-9.696c-0.706-0.941-1.397-1.896-2.106-2.835
	c-0.247-0.328-0.22-0.397,0.176-0.519c0.253-0.077,0.514-0.132,0.77-0.2c3.832-1.027,7.669-2.04,11.502-3.067
	c1.013-0.272,2.038-0.509,3.036-0.841c0.429-0.143,0.748-0.389,0.813-0.872c0-0.127,0-0.255,0-0.382
	C126.3,50.276,125.844,49.832,125.449,49.34z M63.17,63.025c-1.493,0.359-2.988,0.713-4.482,1.07
	c-5.378,1.282-10.756,2.565-16.134,3.848c-0.299,0.071-0.6,0.127-0.9,0.19c-0.198,0.004-0.327-0.066-0.409-0.251
	c-0.999-2.221-2.089-4.398-3.147-6.592c-2.627-5.446-5.266-10.886-7.902-16.328c-1.925-3.973-3.851-7.945-5.781-11.917
	c-2.208-4.543-4.42-9.084-6.63-13.626c-0.009-0.019-0.021-0.037-0.029-0.056c-0.332-0.888-0.14-0.876,0.543-0.931
	c2.124-0.171,4.246-0.361,6.369-0.547c2.006-0.175,4.013-0.354,6.02-0.529c1.88-0.165,3.761-0.32,5.64-0.495
	c0.574-0.054,0.98-0.03,1.342,0.599c5.415,9.414,10.869,18.805,16.313,28.203c3.128,5.401,6.256,10.802,9.382,16.203
	c0.074,0.129,0.148,0.258,0.202,0.396C63.742,62.709,63.637,62.914,63.17,63.025z M117.608,72.951
	c0.138,0.188,0.269,0.382,0.392,0.579c0.245,0.392,0.2,0.582-0.23,0.77c-0.437,0.189-0.889,0.342-1.339,0.494
	c-7.46,2.529-14.922,5.053-22.382,7.583c-3.237,1.098-6.473,2.208-9.71,3.312c-0.298,0.102-0.578,0.273-0.91,0.266
	c-0.397-0.006-0.668-0.241-0.908-0.518c-0.537-0.623-0.913-1.353-1.327-2.053c-3.362-5.692-6.673-11.417-9.982-17.141
	c-0.182-0.315-0.183-0.316,0.175-0.408c7.943-2.066,15.885-4.13,23.829-6.196c3.166-0.824,6.332-1.651,9.497-2.479
	c0.164-0.042,0.325-0.096,0.487-0.145c0.538-0.163,0.762-0.087,1.089,0.37c0.771,1.077,1.535,2.16,2.316,3.231
	C111.603,64.73,114.607,68.839,117.608,72.951z M120.916,48.982c-0.211,0.147-0.457,0.219-0.705,0.28
	c-4.36,1.075-8.72,2.149-13.08,3.223c-0.052,0.013-0.104,0.021-0.154,0.031c-0.168,0.02-0.208-0.124-0.279-0.22
	c-1.568-2.15-3.137-4.3-4.704-6.451c-1.73-2.374-3.457-4.75-5.191-7.12c-0.519-0.707-0.443-0.871,0.393-1.015
	c4.26-0.736,8.519-1.481,12.761-2.31c0.548-0.108,0.914,0.16,1.225,0.559c0.475,0.611,0.944,1.227,1.423,1.836
	c2.741,3.484,5.484,6.967,8.227,10.45c0.059,0.075,0.114,0.153,0.176,0.227C121.171,48.677,121.107,48.847,120.916,48.982z"/>
</svg>
