<?xml version="1.0" encoding="utf-8"?>
<!-- Generator: Adobe Illustrator 20.1.0, SVG Export Plug-In . SVG Version: 6.00 Build 0)  -->
<svg version="1.1" id="Layer_1" xmlns="http://www.w3.org/2000/svg" xmlns:xlink="http://www.w3.org/1999/xlink" x="0px" y="0px"
	 viewBox="0 0 142.3 107.4" style="enable-background:new 0 0 142.3 107.4;" xml:space="preserve">
<style type="text/css">
	.st0{fill:#FA4F3B;}
</style>
<path class="st0" d="M322.9-163.1c-7.8-9.7-15.6-19.4-23.4-29c-1.1-1.3-2.1-2.6-3.5-3.6c-1.1-0.8-2.3-1.1-3.6-0.9
	c-3.9,0.6-7.7,1.2-11.6,1.9c-5.6,0.9-11.2,1.9-16.8,2.8c-2,0.3-4,0.5-5.9,1.1c-2.3,0.7-2.7,2.1-1.3,4c7.3,10.4,14.7,20.8,22,31.1
	c0.4,0.6,0.4,0.6-0.3,0.8c-3.9,0.9-7.9,1.9-11.8,2.8c-18.3,4.4-36.5,8.7-54.8,13.1c-0.4,0.1-0.6,0-0.8-0.3c-1-1.8-2.1-3.5-3.1-5.2
	c-9.3-15.5-18.6-31-27.8-46.5c-7.5-12.5-14.9-25-22.4-37.5c-0.2-0.4-0.5-0.7-0.7-1.1c-1-1.7-2.3-3.2-4.4-3.5c-1.3,0-2.6,0-3.9,0
	c-0.8,0.1-1.6,0.1-2.4,0.1c-1.5,0.1-3.1,0.1-4.6,0.2c-2.3,0.1-4.6,0.4-6.8,0.5c-2.9,0.2-5.7,0.5-8.6,0.7c-3.8,0.3-7.6,0.7-11.4,0.9
	c-3.6,0.3-7.1,0.6-10.7,0.9c-1.9,0.2-3,1.1-3.3,2.9c0,0.6,0,1.2,0,1.7c0.3,1.1,0.5,2.1,1,3.1c2.8,6.4,5.8,12.7,8.7,19.1
	c10.2,22.2,20.5,44.3,30.7,66.5c2.4,5.1,4.7,10.3,7.1,15.4c1.3,2.8,3.4,4.7,6.5,5.3c2.1,0.4,4,0,6-0.5c15.1-3.8,30.2-7.8,45.3-11.7
	c0.5-0.1,0.7,0,0.9,0.4c5.9,10.7,11.8,21.3,17.8,31.9c2.3,4,4.5,7.9,7,11.7c1.2,1.9,2.7,3.5,5,4.2c0.9,0,1.7,0,2.6,0
	c1-0.2,1.9-0.2,2.9-0.4c3-0.9,5.9-2,8.9-3c7.4-2.6,14.8-5.3,22.2-7.9c6-2.1,12-4.3,18-6.4c7.8-2.8,15.6-5.6,23.4-8.5
	c1.5-0.6,3-1.1,4.4-1.9c1.6-0.9,1.9-2.1,1.2-3.7c-0.2-0.4-0.4-0.8-0.7-1.1c-2.8-3.8-5.6-7.6-8.4-11.4c-4.7-6.3-9.4-12.7-14.2-19
	c-1.4-1.8-2.7-3.7-4.1-5.6c-0.5-0.6-0.4-0.8,0.3-1c0.5-0.2,1-0.3,1.5-0.4c7.5-2,15-4,22.6-6c2-0.5,4-1,6-1.6
	c0.8-0.3,1.5-0.8,1.6-1.7c0-0.2,0-0.5,0-0.7C324.6-161.3,323.7-162.2,322.9-163.1z M200.8-136.3c-2.9,0.7-5.9,1.4-8.8,2.1
	c-10.5,2.5-21.1,5-31.6,7.5c-0.6,0.1-1.2,0.2-1.8,0.4c-0.4,0-0.6-0.1-0.8-0.5c-2-4.4-4.1-8.6-6.2-12.9c-5.1-10.7-10.3-21.3-15.5-32
	c-3.8-7.8-7.6-15.6-11.3-23.4c-4.3-8.9-8.7-17.8-13-26.7c0,0,0-0.1-0.1-0.1c-0.7-1.7-0.3-1.7,1.1-1.8c4.2-0.3,8.3-0.7,12.5-1.1
	c3.9-0.3,7.9-0.7,11.8-1c3.7-0.3,7.4-0.6,11.1-1c1.1-0.1,1.9-0.1,2.6,1.2c10.6,18.5,21.3,36.9,32,55.3c6.1,10.6,12.3,21.2,18.4,31.8
	c0.1,0.3,0.3,0.5,0.4,0.8C201.9-136.9,201.7-136.5,200.8-136.3z M307.5-116.9c0.3,0.4,0.5,0.7,0.8,1.1c0.5,0.8,0.4,1.1-0.5,1.5
	c-0.9,0.4-1.7,0.7-2.6,1c-14.6,5-29.3,9.9-43.9,14.9c-6.4,2.2-12.7,4.3-19,6.5c-0.6,0.2-1.1,0.5-1.8,0.5c-0.8,0-1.3-0.5-1.8-1
	c-1.1-1.2-1.8-2.7-2.6-4c-6.6-11.2-13.1-22.4-19.6-33.6c-0.4-0.6-0.4-0.6,0.3-0.8c15.6-4,31.1-8.1,46.7-12.1
	c6.2-1.6,12.4-3.2,18.6-4.9c0.3-0.1,0.6-0.2,1-0.3c1.1-0.3,1.5-0.2,2.1,0.7c1.5,2.1,3,4.2,4.5,6.3
	C295.8-133,301.6-124.9,307.5-116.9z M314-163.8c-0.4,0.3-0.9,0.4-1.4,0.6c-8.5,2.1-17.1,4.2-25.6,6.3c-0.1,0-0.2,0-0.3,0.1
	c-0.3,0-0.4-0.2-0.5-0.4c-3.1-4.2-6.2-8.4-9.2-12.6c-3.4-4.7-6.8-9.3-10.2-14c-1-1.4-0.9-1.7,0.8-2c8.4-1.4,16.7-2.9,25-4.5
	c1.1-0.2,1.8,0.3,2.4,1.1c0.9,1.2,1.9,2.4,2.8,3.6c5.4,6.8,10.8,13.7,16.1,20.5c0.1,0.1,0.2,0.3,0.3,0.4
	C314.5-164.4,314.4-164.1,314-163.8z"/>
<path class="st0" d="M125.4,49.3c-4-4.9-8-9.9-11.9-14.8c-0.5-0.7-1.1-1.3-1.8-1.8c-0.6-0.4-1.2-0.6-1.8-0.5c-2,0.3-3.9,0.6-5.9,1
	c-2.9,0.5-5.7,1-8.6,1.4c-1,0.2-2,0.3-3,0.6c-1.2,0.4-1.4,1-0.7,2.1c3.7,5.3,7.5,10.6,11.2,15.9c0.2,0.3,0.2,0.3-0.2,0.4
	c-2,0.5-4,1-6,1.4c-9.3,2.2-18.6,4.5-27.9,6.7c-0.2,0-0.3,0-0.4-0.2c-0.5-0.9-1.1-1.8-1.6-2.7c-4.7-7.9-9.5-15.8-14.2-23.7
	c-3.8-6.4-7.6-12.8-11.4-19.1c-0.1-0.2-0.2-0.4-0.4-0.6c-0.5-0.9-1.1-1.6-2.2-1.8c-0.7,0-1.3,0-2,0c-0.4,0.1-0.8,0-1.2,0.1
	c-0.8,0-1.6,0.1-2.3,0.1c-1.2,0.1-2.3,0.2-3.5,0.3c-1.5,0.1-2.9,0.2-4.4,0.3c-1.9,0.1-3.9,0.3-5.8,0.5c-1.8,0.1-3.6,0.3-5.4,0.5
	c-1,0.1-1.5,0.6-1.7,1.5c0,0.3,0,0.6,0,0.9c0.1,0.5,0.3,1.1,0.5,1.6c1.4,3.3,2.9,6.5,4.4,9.7c5.2,11.3,10.4,22.6,15.7,33.9
	c1.2,2.6,2.4,5.3,3.6,7.9c0.7,1.4,1.7,2.4,3.3,2.7c1,0.2,2.1,0,3.1-0.3c7.7-1.9,15.4-4,23.1-6c0.3-0.1,0.3,0,0.5,0.2
	c3,5.4,6,10.9,9.1,16.3c1.1,2,2.3,4,3.6,6c0.6,1,1.4,1.8,2.6,2.1c0.4,0,0.9,0,1.3,0c0.5-0.1,1-0.1,1.5-0.2c1.5-0.5,3-1,4.5-1.5
	c3.8-1.3,7.6-2.7,11.3-4c3.1-1.1,6.1-2.2,9.2-3.3c4-1.4,8-2.9,11.9-4.3c0.8-0.3,1.5-0.6,2.3-0.9c0.8-0.4,1-1.1,0.6-1.9
	c-0.1-0.2-0.2-0.4-0.3-0.6c-1.4-1.9-2.9-3.9-4.3-5.8c-2.4-3.2-4.8-6.5-7.2-9.7c-0.7-0.9-1.4-1.9-2.1-2.8c-0.2-0.3-0.2-0.4,0.2-0.5
	c0.3-0.1,0.5-0.1,0.8-0.2c3.8-1,7.7-2,11.5-3.1c1-0.3,2-0.5,3-0.8c0.4-0.1,0.7-0.4,0.8-0.9c0-0.1,0-0.3,0-0.4
	C126.3,50.3,125.8,49.8,125.4,49.3z M63.2,63c-1.5,0.4-3,0.7-4.5,1.1c-5.4,1.3-10.8,2.6-16.1,3.8c-0.3,0.1-0.6,0.1-0.9,0.2
	c-0.2,0-0.3-0.1-0.4-0.3c-1-2.2-2.1-4.4-3.1-6.6c-2.6-5.4-5.3-10.9-7.9-16.3c-1.9-4-3.9-7.9-5.8-11.9c-2.2-4.5-4.4-9.1-6.6-13.6
	c0,0,0,0,0-0.1c-0.3-0.9-0.1-0.9,0.5-0.9c2.1-0.2,4.2-0.4,6.4-0.5c2-0.2,4-0.4,6-0.5c1.9-0.2,3.8-0.3,5.6-0.5c0.6-0.1,1,0,1.3,0.6
	c5.4,9.4,10.9,18.8,16.3,28.2c3.1,5.4,6.3,10.8,9.4,16.2c0.1,0.1,0.1,0.3,0.2,0.4C63.7,62.7,63.6,62.9,63.2,63z M117.6,73
	c0.1,0.2,0.3,0.4,0.4,0.6c0.2,0.4,0.2,0.6-0.2,0.8c-0.4,0.2-0.9,0.3-1.3,0.5c-7.5,2.5-14.9,5.1-22.4,7.6c-3.2,1.1-6.5,2.2-9.7,3.3
	C84,85.8,83.8,86,83.4,86c-0.4,0-0.7-0.2-0.9-0.5c-0.5-0.6-0.9-1.4-1.3-2.1c-3.4-5.7-6.7-11.4-10-17.1c-0.2-0.3-0.2-0.3,0.2-0.4
	c7.9-2.1,15.9-4.1,23.8-6.2c3.2-0.8,6.3-1.7,9.5-2.5c0.2,0,0.3-0.1,0.5-0.1c0.5-0.2,0.8-0.1,1.1,0.4c0.8,1.1,1.5,2.2,2.3,3.2
	C111.6,64.7,114.6,68.8,117.6,73z M120.9,49c-0.2,0.1-0.5,0.2-0.7,0.3c-4.4,1.1-8.7,2.1-13.1,3.2c-0.1,0-0.1,0-0.2,0
	c-0.2,0-0.2-0.1-0.3-0.2c-1.6-2.2-3.1-4.3-4.7-6.5c-1.7-2.4-3.5-4.8-5.2-7.1c-0.5-0.7-0.4-0.9,0.4-1c4.3-0.7,8.5-1.5,12.8-2.3
	c0.5-0.1,0.9,0.2,1.2,0.6c0.5,0.6,0.9,1.2,1.4,1.8c2.7,3.5,5.5,7,8.2,10.5c0.1,0.1,0.1,0.2,0.2,0.2C121.2,48.7,121.1,48.8,120.9,49z
	"/>
</svg>
